<svg id="Layer_1" data-name="Layer 1" xmlns="http://www.w3.org/2000/svg" viewBox="0 0 24 24"><defs><style>.cls-1{fill:#231f20;}</style></defs><path class="cls-1" d="M11,7.35a21.8,21.8,0,0,0,1.51,3.91A7,7,0,0,1,13.47,13c.17,1.2-1.15.73-1.87.74-.93,0-1.86.62-1.62,1.67s1.31,1.33,2.26,1.33a6.49,6.49,0,0,1,2.35.36c.49.19-.09.05-.37.09-.44.07-.87.14-1.3.23-.92.19-2.89.38-3.38,1.34-.4.8.25,2.36.76,3,.68.86,2.3.53,3.23.41,2.52-.33,4.88-1.07,6-3.54a20.94,20.94,0,0,0,1.15-4,27,27,0,0,0,.67-4.28,11.55,11.55,0,0,0-.54-4.13,7.54,7.54,0,0,0-1.71-3.35C17.37,1.21,14.42.9,12.14,1,11,1,9.46,1.14,8.92,2.32s.06,2.92,0,4.3A2.78,2.78,0,0,1,8,8.8a1.83,1.83,0,0,1-2.38-.35C5.48,8.3,5,7.77,5.09,7.5s1-.3,1.15-.31A3,3,0,0,1,8.46,8c.6.54,1.48-.35.88-.88A4.35,4.35,0,0,0,6.65,5.94c-.83,0-2.41.18-2.83,1s.5,1.95,1,2.45a3.15,3.15,0,0,0,2.86.85c2.47-.56,2.56-3.42,2.34-5.43-.05-.53-.3-1.47,0-2,.39-.72,1.78-.66,2.46-.66a12.3,12.3,0,0,1,4.17.61c2.75,1,3.55,4.71,3.43,7.33a25,25,0,0,1-.71,4.48A13,13,0,0,1,18,18.84a4.68,4.68,0,0,1-3.21,1.87,12.57,12.57,0,0,1-2.36.35A2.25,2.25,0,0,1,11.23,21a2.67,2.67,0,0,1-.49-1.27c.26-1.28,6.94-.73,5.19-3.14-.69-.95-2.5-1-3.53-1-.2,0-1.33.14-.8-.49.11-.12,1,.1,1.22.1a2.18,2.18,0,0,0,1.44-.44c1-.82.45-2.07,0-3a22.22,22.22,0,0,1-2-4.69.62.62,0,0,0-1.2.33Z"/><path class="cls-1" d="M14.32,7.3a6,6,0,0,0,1.17-.4,3,3,0,0,1,1.11-.22,3.78,3.78,0,0,1,1.2.2.61.61,0,0,1,.27.17s0,0,0,0,0,0,0,0v0a.19.19,0,0,1,0-.08c0,.06,0,.07,0,0s-.05.06,0,0-.21.11-.13.08a3.19,3.19,0,0,1-.44.13l-1.35.3A5.66,5.66,0,0,1,15,7.75l-.21,0s0,0,0,0,0,0,0,0c.07.12-.08-.18,0,0h0a.18.18,0,0,1,0,.1.65.65,0,0,0-.23-.86.63.63,0,0,0-.85.22,1.21,1.21,0,0,0,.1,1.28A1.58,1.58,0,0,0,15.06,9a6.72,6.72,0,0,0,1.41-.18c.46-.09.93-.2,1.39-.31A2.32,2.32,0,0,0,19,8a1.24,1.24,0,0,0,.32-1.29c-.32-1-1.47-1.2-2.38-1.27a3.91,3.91,0,0,0-1.55.18A7.42,7.42,0,0,1,14,6.09a.63.63,0,0,0-.44.77.64.64,0,0,0,.77.44Z"/></svg>